<?xml version="1.0" encoding="UTF-8"?>
<svg id="Logo_reduced" data-name="Logo reduced" xmlns="http://www.w3.org/2000/svg" viewBox="0 0 49.9 78.4">
  <defs>
    <style>
      .cls-1 {
        fill: #fff;
      }
    </style>
  </defs>
  <g id="IJ">
    <path class="cls-1" d="M13.9,60.5c-.1.7-.7,1.2-1.5,1.2H1.3c-.7,0-1.3-.4-1.3-1.1l.1-.2L7.2,1.1C7.3.4,7.4.1,8.2,0h12C20.8,0,21.1.4,21.1,1v.2l-7.2,59.3Z"/>
    <path class="cls-1" d="M42.2,62.5c-1.6,12.9-9.7,15.9-19.4,15.9-5.7,0-6.5-.2-8-.4-.7-.1-1.5-.2-1.5-1.3v-.5l.6-4.8c.2-1.4.7-1.7,2-1.7,1.2-.1,2.7-.1,4.5-.2,4.3-.2,7.3-.6,8.1-6.7L36,1.2c.1-.7.7-1.1,1.4-1.2l11.3.2h.2c.7,0,1,.4,1,1l-7.7,61.3Z"/>
  </g>
</svg>